<?xml version="1.0"?>
<svg xmlns="http://www.w3.org/2000/svg" id="Layer_1" data-name="Layer 1" viewBox="0 0 512 512" width="512" height="512"><title>Bus 2</title><path d="M367.516,333.441a25.715,25.715,0,1,0,25.715,25.715A25.745,25.745,0,0,0,367.516,333.441Zm0,37.429a11.715,11.715,0,1,1,11.715-11.714A11.728,11.728,0,0,1,367.516,370.87Z"/><path d="M146.781,333.441A25.715,25.715,0,1,0,172.5,359.156,25.745,25.745,0,0,0,146.781,333.441Zm0,37.429A11.715,11.715,0,1,1,158.5,359.156,11.728,11.728,0,0,1,146.781,370.87Z"/><path d="M51.287,187H65.716C75.09,187,83,179.646,83,170.272V126a17.266,17.266,0,0,0-17.284-17H64V80.13A11.9,11.9,0,0,1,75.844,68H88V385a52.3,52.3,0,0,0,28,46.739v29.3A29.9,29.9,0,0,0,145.855,491h2.3A29.9,29.9,0,0,0,178,461.046V438H334v23.046A29.9,29.9,0,0,0,363.85,491h2.3A29.9,29.9,0,0,0,396,461.046v-29.3A52.3,52.3,0,0,0,424,385V68h12.156A11.9,11.9,0,0,1,448,80.13V109h-1.716A17.266,17.266,0,0,0,429,126v44.27c0,9.374,7.91,16.728,17.284,16.728h14.429c9.374,0,17.287-7.354,17.287-16.728V126a17.239,17.239,0,0,0-16-16.92V80.13A25.918,25.918,0,0,0,436.156,54H422.3A48.9,48.9,0,0,0,375.66,19H256.094c-.032,0-.063,0-.094,0s-.063,0-.094,0H136.339A48.9,48.9,0,0,0,89.7,54H75.844A25.918,25.918,0,0,0,50,80.13v28.952A17.239,17.239,0,0,0,34,126v44.27C34,179.646,41.913,187,51.287,187ZM463,170a3,3,0,0,1-3,3H446a3,3,0,0,1-3-3V126a3,3,0,0,1,3-3h14a3,3,0,0,1,3,3ZM164,461.046A15.884,15.884,0,0,1,148.15,477h-2.3A15.888,15.888,0,0,1,130,461.046V436.81A48.5,48.5,0,0,0,140.658,438H164ZM321,424H191v-9.73c0-7.093,7.21-13.27,15.859-13.27h98.285c8.647,0,15.856,6.177,15.856,13.27Zm61,37.046A15.887,15.887,0,0,1,366.146,477h-2.3A15.884,15.884,0,0,1,348,461.046V438h23.342A48.5,48.5,0,0,0,382,436.81ZM371.342,424H335v-9.73c0-14.935-13.34-27.27-29.856-27.27H206.859C190.341,387,177,399.335,177,414.27V424H140.658A38.815,38.815,0,0,1,102,385V280.5A48.166,48.166,0,0,0,136.339,295H177v10.1c0,14.935,13.341,26.9,29.859,26.9h98.285C321.66,332,335,320.032,335,305.1V295h40.66A48.164,48.164,0,0,0,410,280.5V385A38.815,38.815,0,0,1,371.342,424Zm-.964-368C379.022,56,386,61.977,386,69.064V79H126V69.064C126,61.977,132.982,56,141.632,56ZM255.906,295c.031,0,.062,0,.094,0s.062,0,.094,0H321v10.1c0,7.093-7.209,12.9-15.856,12.9H206.859C198.21,318,191,312.19,191,305.1V295ZM409.378,59.907a7.064,7.064,0,0,0-.094,1.1,6.881,6.881,0,0,0,.676,3.243c.106,1.1.04,2.215.04,3.343v178.83A34.41,34.41,0,0,1,375.66,281H263V93H393.325c3.866,0,6.675-3.424,6.675-7.29V69.064C400,54.135,386.891,42,370.378,42H263V33H375.66A34.641,34.641,0,0,1,409.378,59.907ZM136.339,33H249v9H141.632C125.114,42,112,54.135,112,69.064V85.71c0,3.866,2.809,7.29,6.675,7.29H249V281H136.339A34.409,34.409,0,0,1,102,246.418V67.588c0-1.126-.066-2.24.04-3.339a6.619,6.619,0,0,0,.613-4.346A34.607,34.607,0,0,1,136.339,33ZM68,170a3,3,0,0,1-3,3H51a3,3,0,0,1-3-3V126a3,3,0,0,1,3-3H65a3,3,0,0,1,3,3Z"/></svg>
