<svg height="467pt" viewBox="-29 0 467 467.456" width="467pt" xmlns="http://www.w3.org/2000/svg"><path d="m323.46875 204.378906c.011719-57.617187-41.238281-106.980468-97.945312-117.195312-56.707032-10.21875-112.589844 21.640625-132.691407 75.640625-20.097656 54 1.359375 114.644531 50.949219 143.988281 6.953125 4.136719 11.210938 11.636719 11.199219 19.726562v12.136719c0 4.605469 3.734375 8.339844 8.339843 8.339844h82.199219c4.605469 0 8.339844-3.734375 8.339844-8.339844v-12.125c.03125-8.167969 4.363281-15.714843 11.402344-19.859375 36.097656-21.441406 58.222656-60.324218 58.207031-102.3125zm0 0" fill="#f9db5f"/><path d="m200.746094 85.382812c-4.148438.132813-8.285156.484376-12.398438 1.054688 50.144532 6.851562 90.46875 44.660156 100.535156 94.257812 10.066407 49.597657-12.328124 100.136719-55.832031 125.996094-7.035156 4.144532-11.371093 11.691406-11.398437 19.859375v12.128907c0 4.605468-3.734375 8.339843-8.339844 8.339843h32.207031c4.605469 0 8.339844-3.734375 8.339844-8.339843v-12.128907c.03125-8.167969 4.363281-15.714843 11.402344-19.859375 46.65625-27.738281 68.644531-83.527344 53.453125-135.636718-15.191406-52.113282-63.710938-87.351563-117.96875-85.671876zm0 0" fill="#f9ef8b"/><path d="m188.339844 338.679688v-12.15625c.011718-8.089844-4.246094-15.589844-11.199219-19.726563-43.496094-25.75-65.988281-76.160156-56.089844-125.726563 9.898438-49.570312 50.023438-87.476562 100.074219-94.546874-32.828125-4.683594-66.121094 4.550781-91.851562 25.472656-25.726563 20.921875-41.550782 51.632812-43.65625 84.726562-2.898438 44.722656 19.585937 87.28125 58.164062 110.089844 6.953125 4.136719 11.210938 11.636719 11.199219 19.726562v12.136719c0 4.605469 3.734375 8.339844 8.339843 8.339844h33.367188c-4.605469.003906-8.34375-3.726563-8.347656-8.335937zm0 0" fill="#f9b347"/><g fill="#16131b"><path d="m224.015625 363.105469h-39.199219c-3.878906-.003907-7.199218-2.785157-7.875-6.605469l-23.9375-135.03125c-.535156-2.832031.488282-5.730469 2.683594-7.59375 2.199219-1.863281 5.226562-2.402344 7.929688-1.410156 2.707031.992187 4.667968 3.363281 5.140624 6.203125l22.761719 128.425781h25.785157l22.761718-128.425781c.472656-2.839844 2.433594-5.210938 5.140625-6.203125 2.703125-.992188 5.730469-.453125 7.925781 1.410156 2.199219 1.863281 3.222657 4.761719 2.6875 7.59375l-23.929687 135.027344c-.675781 3.820312-3.992187 6.605468-7.875 6.609375zm0 0"/><path d="m228.546875 265.152344c-10.136719 0-19.925781-5.601563-27.921875-10.183594-15.058594-8.621094-21.945312-11.382812-29.570312-3.757812-3.136719 3.03125-8.128907 2.988281-11.214844-.097657-3.085938-3.085937-3.128906-8.074219-.097656-11.214843 17.027343-17.027344 35.410156-6.503907 48.832031 1.203124 14.589843 8.351563 21.234375 11.050782 28.285156 4 3.140625-3.035156 8.128906-2.988281 11.214844.097657 3.085937 3.085937 3.128906 8.074219.097656 11.210937-5.046875 5.507813-12.152344 8.671875-19.625 8.742188zm0 0"/><path d="m204.414062 57.15625c-4.417968 0-8-3.582031-8-8v-41.15625c0-4.417969 3.582032-8 8-8 4.421876 0 8 3.582031 8 8v41.15625c0 4.417969-3.578124 8-8 8zm0 0"/><path d="m49.382812 243.476562h-41.15625c-4.417968 0-8-3.582031-8-8 0-4.417968 3.582032-8 8-8h41.15625c4.417969 0 8 3.582032 8 8 0 4.417969-3.582031 8-8 8zm0 0"/><path d="m71.925781 118.074219c-2.125.003906-4.160156-.839844-5.65625-2.34375l-29.101562-29.097657c-2.988281-3.148437-2.921875-8.101562.144531-11.167968 3.070312-3.066406 8.023438-3.128906 11.167969-.140625l29.097656 29.101562c2.289063 2.285157 2.972656 5.726563 1.734375 8.714844s-4.152344 4.9375-7.386719 4.9375zm0 0"/><path d="m400.605469 243.476562h-41.15625c-4.417969 0-8-3.582031-8-8 0-4.417968 3.582031-8 8-8h41.15625c4.417969 0 8 3.582032 8 8 0 4.417969-3.582031 8-8 8zm0 0"/><path d="m336.90625 118.074219c-3.234375 0-6.148438-1.949219-7.386719-4.9375s-.554687-6.429688 1.734375-8.714844l29.097656-29.101563c3.140626-3.03125 8.128907-2.988281 11.214844.097657 3.085938 3.085937 3.128906 8.074219.097656 11.214843l-29.101562 29.089844c-1.496094 1.507813-3.53125 2.355469-5.65625 2.351563zm0 0"/></g><path d="m159.875 347.019531h89.082031c8.882813 0 16.082031 7.199219 16.082031 16.082031 0 8.882813-7.199218 16.082032-16.082031 16.082032h-89.082031c-8.882812 0-16.082031-7.199219-16.082031-16.082032 0-8.882812 7.199219-16.082031 16.082031-16.082031zm0 0" fill="#3a484a"/><path d="m159.875 379.183594h89.082031c8.882813 0 16.082031 7.199218 16.082031 16.082031s-7.199218 16.082031-16.082031 16.082031h-89.082031c-8.882812 0-16.082031-7.199218-16.082031-16.082031s7.199219-16.082031 16.082031-16.082031zm0 0" fill="#3a484a"/><path d="m159.875 411.351562h89.082031c8.882813 0 16.082031 7.199219 16.082031 16.082032 0 8.882812-7.199218 16.082031-16.082031 16.082031h-89.082031c-8.882812 0-16.082031-7.199219-16.082031-16.082031 0-8.882813 7.199219-16.082032 16.082031-16.082032zm0 0" fill="#3a484a"/><path d="m248.957031 347.019531h-20.402343c8.785156.140625 15.832031 7.296875 15.832031 16.082031 0 8.785157-7.046875 15.945313-15.832031 16.082032h20.402343c5.804688.09375 11.210938-2.953125 14.140625-7.964844 2.929688-5.015625 2.929688-11.21875 0-16.230469-2.929687-5.015625-8.335937-8.058593-14.140625-7.96875zm0 0" fill="#59636d"/><path d="m248.957031 379.183594h-20.402343c8.785156.140625 15.832031 7.296875 15.832031 16.082031s-7.046875 15.945313-15.832031 16.082031h20.402343c8.78125-.136718 15.828125-7.296875 15.828125-16.082031s-7.046875-15.941406-15.828125-16.082031zm0 0" fill="#59636d"/><path d="m248.957031 411.351562h-20.402343c8.882812 0 16.085937 7.203126 16.085937 16.085938s-7.203125 16.082031-16.085937 16.082031h20.402343c8.882813 0 16.082031-7.199219 16.082031-16.082031s-7.199218-16.085938-16.082031-16.085938zm0 0" fill="#59636d"/><path d="m167.925781 363.105469c0-8.886719 7.203125-16.089844 16.089844-16.085938h-24.140625c-5.804688-.089843-11.210938 2.953125-14.140625 7.96875-2.929687 5.011719-2.929687 11.214844 0 16.230469 2.929687 5.011719 8.335937 8.058594 14.140625 7.964844h24.140625c-8.882813.003906-16.089844-7.195313-16.089844-16.078125zm0 0" fill="#2c363e"/><path d="m167.925781 395.269531c0-8.886719 7.203125-16.089843 16.089844-16.085937h-24.140625c-8.78125.140625-15.828125 7.296875-15.828125 16.082031s7.046875 15.945313 15.828125 16.082031h24.140625c-8.882813.003906-16.089844-7.195312-16.089844-16.078125zm0 0" fill="#2c363e"/><path d="m167.925781 427.433594c0-8.882813 7.199219-16.085938 16.082031-16.085938h-24.132812c-8.882812 0-16.082031 7.203125-16.082031 16.085938 0 8.882812 7.199219 16.082031 16.082031 16.082031h24.140625c-8.886719.003906-16.089844-7.199219-16.089844-16.082031zm0 0" fill="#2c363e"/><path d="m177.152344 443.515625h54.527344c0 13.214844-10.710938 23.929687-23.925782 23.929687h-6.679687c-13.214844 0-23.925781-10.714843-23.925781-23.929687zm0 0" fill="#3a484a"/><path d="m217.292969 443.515625c0 11.722656-8.5 21.71875-20.074219 23.601563 1.273438.214843 2.566406.328124 3.855469.339843h6.679687c13.214844 0 23.925782-10.714843 23.925782-23.929687h-14.398438zm0 0" fill="#59636d"/><path d="m193.464844 443.515625h-16.3125c0 13.214844 10.710937 23.929687 23.925781 23.929687h6.679687c1.609376 0 3.21875-.164062 4.796876-.484374-11.117188-2.296876-19.09375-12.089844-19.089844-23.445313zm0 0" fill="#2c363e"/></svg>